<svg width="320" height="310" xmlns="http://www.w3.org/2000/svg" version="1.1" fill="#000000">
 <g id="Layer_1">
  <title>Layer 1</title>
  <g stroke="null" stroke-width="0" id="svg_35"/>
  <g stroke="null" id="svg_1">
   <g stroke="null" stroke-width="0" id="svg_46"/>
   <g stroke="null" id="svg_45">
    <title fill="#ffffff" stroke="null">j</title>
    <path fill="#ffffff" stroke="null" d="m140.92306,5.9925l-96.96164,0c-3.51547,0 -6.36283,2.84737 -6.36283,6.36283l0,7.38884c0,3.51547 2.84737,6.36283 6.36283,6.36283l83.21792,0l0,102.30642c0.03977,0.73173 0.05567,1.59866 0.05567,2.45764c0,13.20288 -4.97096,25.24454 -13.14721,34.3593l0.03977,-0.04772c-8.5262,8.62959 -20.36902,13.97437 -33.4526,13.97437c-1.09759,0 -2.17927,-0.03977 -3.26095,-0.11135l0.14316,0.00795c-0.93056,0.06363 -2.0202,0.1034 -3.11779,0.1034c-13.09153,0 -24.93436,-5.34478 -33.46055,-13.97437l-0.00795,-0.00795c-8.13647,-9.05909 -13.11539,-21.10075 -13.11539,-34.30363c0,-0.86694 0.02386,-1.72592 0.06363,-2.5849l-0.00795,0.1193l0,-21.11666c0,-3.51547 -2.84737,-6.36283 -6.36283,-6.36283l-7.38089,0c-3.51547,0 -6.36283,2.84737 -6.36283,6.36283l0,21.37117c-0.02386,0.72377 -0.03977,1.56685 -0.03977,2.41788c0,18.50789 7.03889,35.3694 18.58743,48.05531l-0.05567,-0.05567c12.15301,12.4632 29.10201,20.18609 47.86442,20.18609c1.19303,0 2.37811,-0.03181 3.54728,-0.09544l-0.16702,0.00795c1.0101,0.05567 2.18722,0.08749 3.3723,0.08749c18.75445,0 35.70345,-7.73084 47.84056,-20.17018l0.01591,-0.01591c11.50082,-12.63023 18.53971,-29.49174 18.53971,-48.00758c0,-0.84308 -0.01591,-1.68615 -0.04772,-2.52923l0,0.1193l0,-116.30466c-0.00795,-3.51547 -2.85532,-6.36283 -6.37079,-6.36283l0,0l0.03181,0l-0.00002,0.00001z" id="svg_2"/>
   </g>
  </g>
  <g stroke="null" id="svg_3">
   <title fill="#ffffff" stroke="null">a</title>
   <path fill="#ffffff" stroke="null" d="m308.90861,292.05158l-82.79376,-176.17366c-1.0303,-2.15498 -3.18528,-3.61785 -5.69418,-3.61785c0,0 0,0 0,0l-8.55701,0c0,0 0,0 0,0c-2.50104,0 -4.66388,1.46287 -5.67059,3.57853l-0.01573,0.03932l-82.80949,176.17366c-0.37751,0.78649 -0.6056,1.70668 -0.6056,2.68193c0,3.46842 2.81563,6.28405 6.28405,6.28405c0,0 0.00786,0 0.00786,0l7.80198,0c2.5089,0 4.67175,-1.46287 5.68632,-3.58639l0.01573,-0.03932l19.19035,-40.92105l108.54343,0l19.43416,40.95251c1.0303,2.13925 3.18528,3.59426 5.68632,3.59426l7.80198,0c0,0 0,0 0,0c3.47628,0 6.29192,-2.81563 6.29192,-6.29192c0,-0.97525 -0.22022,-1.89544 -0.61346,-2.71339l0.01573,0.03932l-0.00001,0zm-137.966,-55.47111l45.17596,-95.71578l44.97147,95.71578l-90.14743,0z" id="svg_4"/>
  </g>
  <g stroke="null" id="svg_63">
   <g stroke="null" stroke-width="0" id="svg_59" transform="rotate(-90 108.005 720.969)"/>
   <g stroke="null" id="svg_62">
    <title id="svg_60" stroke="null">chevron-up-left</title>
   </g>
  </g>
  <g id="svg_5" stroke="null">
   <path transform="rotate(90 245.219 62.7852)" fill="#00daff" id="svg_6" d="m215.85993,33.42647l0,68.50377a9.78625,9.78625 0 1 1 -19.57251,0l0,-78.29002a9.78625,9.78625 0 0 1 9.78625,-9.78625l78.29002,0a9.78625,9.78625 0 1 1 0,19.57251l-68.50377,0l0.00001,-0.00001z" stroke="null"/>
  </g>
  <g transform="rotate(-90 57.0419 254.05)" stroke="null" id="svg_24">
   <path fill="#00daff" d="m27.68315,224.68864l0,68.50377a9.78625,9.78625 0 1 1 -19.5725,0l0,-78.29002a9.78625,9.78625 0 0 1 9.78625,-9.78625l78.29002,0a9.78625,9.78625 0 1 1 0,19.5725l-68.50377,0z" stroke="null" id="svg_23"/>
  </g>
 </g>

</svg>