<?xml version="1.0" standalone="no"?>
<!DOCTYPE svg PUBLIC "-//W3C//DTD SVG 20010904//EN"
 "http://www.w3.org/TR/2001/REC-SVG-20010904/DTD/svg10.dtd">
<svg version="1.0" xmlns="http://www.w3.org/2000/svg"
 width="640.000000pt" height="640.000000pt" viewBox="0 0 640.000000 640.000000"
 preserveAspectRatio="xMidYMid meet">
<metadata>
Created by potrace 1.14, written by Peter Selinger 2001-2017
</metadata>
<g transform="translate(0.000000,640.000000) scale(0.100000,-0.100000)"
fill="#000000" stroke="none">
<path d="M831 6169 c-13 -5 -36 -21 -50 -35 -24 -24 -25 -32 -28 -144 -2 -108
-1 -120 20 -151 43 -64 -2 -61 923 -62 598 0 844 -4 845 -11 6 -53 2 -2145 -3
-2191 -13 -105 -16 -118 -43 -203 -108 -340 -341 -552 -700 -638 -91 -22 -377
-21 -485 1 -14 3 -36 7 -50 10 -139 27 -363 160 -459 274 -48 56 -91 118 -91
131 0 4 -4 10 -8 12 -10 4 -82 153 -82 171 0 7 -3 17 -7 21 -4 3 -8 12 -9 19
-1 7 -9 39 -17 72 -24 94 -30 166 -28 360 1 99 1 196 0 215 0 19 -2 67 -3 106
-2 76 -18 113 -58 136 -32 17 -42 18 -143 19 -107 1 -151 -14 -180 -63 -18
-31 -19 -52 -18 -338 0 -168 3 -330 7 -360 61 -534 413 -980 896 -1135 176
-56 265 -69 495 -68 229 0 334 15 495 70 69 24 218 90 230 103 3 3 16 11 30
19 97 53 264 200 345 303 56 71 205 338 188 338 -3 0 -1 6 5 13 15 18 62 178
76 262 3 17 8 50 12 75 4 25 7 617 8 1315 2 1263 2 1270 -19 1302 -41 67 19
63 -1077 62 -613 0 -1002 -4 -1017 -10z"/>
<path d="M4090 6018 c-130 -22 -201 -162 -141 -278 26 -50 40 -64 96 -90 37
-18 74 -19 738 -18 384 0 700 -2 703 -4 2 -3 4 -319 5 -703 0 -655 1 -702 18
-740 50 -110 173 -150 277 -89 38 21 82 76 91 114 3 8 5 382 6 830 2 868 4
845 -46 911 -11 16 -41 39 -66 51 l-45 22 -797 0 c-439 1 -816 -2 -839 -6z"/>
<path d="M4179 4037 c-31 -15 -44 -32 -79 -104 -44 -91 -57 -122 -58 -137 0
-5 -4 -12 -9 -15 -4 -3 -19 -31 -33 -61 -14 -30 -29 -58 -33 -61 -5 -3 -9 -10
-9 -15 -1 -14 -12 -41 -73 -169 -73 -155 -114 -242 -158 -335 -81 -174 -130
-279 -158 -336 -16 -33 -29 -66 -29 -72 0 -7 -4 -12 -10 -12 -5 0 -10 -5 -10
-10 0 -6 -17 -47 -39 -93 -21 -45 -50 -107 -64 -137 -14 -30 -48 -104 -77
-165 -86 -181 -131 -277 -157 -335 -14 -30 -57 -119 -94 -198 -38 -79 -69
-145 -69 -147 0 -2 -27 -61 -61 -132 -127 -268 -139 -294 -139 -303 0 -6 -4
-10 -10 -10 -5 0 -10 -6 -10 -13 0 -6 -17 -48 -39 -92 -21 -44 -49 -102 -61
-130 -24 -53 -89 -191 -172 -365 -64 -134 -70 -149 -70 -186 0 -77 63 -129
152 -124 25 1 52 1 60 1 47 -3 96 1 114 11 27 14 76 59 76 71 0 5 19 48 41 96
23 47 57 119 75 159 19 39 50 107 70 150 47 100 101 216 149 320 l38 82 1087
0 1086 0 44 -92 c24 -51 77 -163 117 -248 41 -85 97 -204 126 -265 135 -283
138 -288 249 -285 35 1 70 1 78 1 8 -1 27 -1 42 -2 62 -1 128 63 128 126 0 17
-13 57 -29 90 -39 79 -94 199 -96 205 0 3 -17 39 -37 80 -64 133 -184 389
-226 481 -39 84 -92 197 -247 524 -49 104 -192 407 -240 510 -18 39 -51 108
-72 155 -22 47 -55 117 -74 155 -18 39 -34 72 -34 75 -1 3 -20 43 -42 90 -22
47 -61 129 -87 182 -25 53 -57 121 -71 149 -14 29 -25 58 -25 65 0 7 -4 14 -8
16 -4 2 -20 32 -36 68 -27 61 -95 206 -171 365 -19 39 -54 113 -78 165 -133
286 -119 272 -285 275 -94 1 -122 -2 -153 -18z m160 -589 c5 -13 34 -75 64
-138 87 -184 137 -290 174 -370 33 -70 64 -137 148 -315 18 -38 63 -133 99
-209 37 -77 69 -150 72 -162 3 -13 12 -28 20 -35 8 -6 14 -15 14 -20 0 -5 16
-43 35 -84 19 -41 51 -109 70 -150 19 -41 35 -79 35 -84 0 -5 6 -14 14 -20 8
-7 17 -22 20 -35 3 -13 30 -75 61 -137 30 -62 53 -114 51 -116 -3 -3 -1434 -5
-1733 -3 l-62 0 33 73 c45 97 101 215 178 377 36 74 73 153 82 175 10 22 22
47 27 55 5 8 13 24 18 35 23 53 121 263 201 430 80 169 143 303 177 375 20 41
61 129 92 195 32 66 64 135 72 153 16 38 26 40 38 10z"/>
<path d="M283 2180 c-21 -10 -47 -26 -58 -36 -24 -22 -58 -74 -49 -74 4 0 2
-6 -3 -12 -7 -8 -10 -315 -9 -848 1 -805 2 -837 20 -865 38 -60 120 -113 153
-101 7 3 15 1 18 -4 3 -5 11 -7 18 -4 18 6 117 10 117 4 0 -3 31 -3 69 0 38 3
83 2 100 -1 17 -4 33 -4 36 -1 7 7 115 9 115 2 0 -3 31 -3 69 0 38 3 83 2 100
-1 17 -4 33 -4 36 -1 8 9 115 8 115 -1 0 -5 4 -6 9 -3 7 5 214 10 234 6 9 -2
116 -2 120 0 10 6 117 3 117 -3 0 -5 4 -6 9 -3 8 5 215 10 236 6 12 -3 5 -3
82 3 63 6 74 11 122 58 47 48 53 59 56 118 5 75 -27 144 -82 180 -49 32 -45
31 -823 34 l-655 2 -1 705 c-1 458 -5 714 -12 731 -15 37 -60 87 -95 106 -44
22 -118 24 -164 3z"/>
</g>
</svg>
